<svg width="16" height="16" fill="none" xmlns="http://www.w3.org/2000/svg"><path d="m10.982 3.605 1.412 1.412-1.412-1.412zm.908-1.243L8.072 6.18a1.412 1.412 0 0 0-.386.721l-.353 1.766 1.765-.354a1.41 1.41 0 0 0 .722-.386l3.818-3.818a1.236 1.236 0 0 0-1.748-1.747v0z" stroke="#fff" stroke-width="2" stroke-linecap="round" stroke-linejoin="round"/><path d="M12.666 10v2a1.334 1.334 0 0 1-1.333 1.333H4A1.334 1.334 0 0 1 2.667 12V4.667A1.333 1.333 0 0 1 4 3.333h2" stroke="#fff" stroke-width="2" stroke-linecap="round" stroke-linejoin="round"/></svg>