<svg width="995" height="488" viewBox="0 0 995 488" fill="none" xmlns="http://www.w3.org/2000/svg">
<path d="M95.5791 462.882C95.5791 462.882 -32.5515 291.75 8.35162 293.705C49.2546 295.661 100.76 396.073 100.76 396.073C100.76 396.073 21.3658 232.36 36.2398 221.187C51.1137 210.014 130.866 385.816 130.866 385.816C130.866 385.816 372.664 297.973 404.609 249.161C450.848 178.51 452.19 87.4128 485.793 78.8657C519.396 70.3186 539.346 16.4565 544.432 36.0954C549.518 55.7342 523.834 97.6392 536.867 118.017C549.897 138.394 512.379 200.669 495.513 225.138C471.3 260.268 470.501 349.762 480.186 351.876C489.875 353.99 529.888 218.562 538.708 176.119C547.529 133.676 594.37 138.198 613.715 107.078C633.053 75.958 643.948 22.012 652.442 45.2609C660.942 68.5104 651.038 109.671 659.712 131.914C668.38 154.157 616.857 314.386 623.091 333.883C629.337 353.379 650.671 260.39 690.97 254.469C731.275 248.548 671.542 420.705 671.542 420.705C671.542 420.705 774.703 223.274 817.461 219.28C860.226 215.285 874.373 174.326 892.397 170.601C910.422 166.876 915.277 192.482 892.397 222.503C869.524 252.523 882.268 290.421 856.304 338.471C830.327 386.524 826.412 469.45 826.412 469.45C826.412 469.45 927.235 374.828 949.335 383.653C971.436 392.48 900.724 460.341 900.724 460.341C900.724 460.341 971.7 421.463 988.301 431.177C1004.9 440.889 931.054 488.104 931.054 488.104H117.13L95.5791 462.882Z" fill="#9CD499"/>
<path d="M416.423 299.074C388.7 233.386 385.971 208.287 406.893 144.937C427.811 81.5928 407.822 -23.127 427.196 4.56631C446.578 32.2596 461.958 109.243 430.812 155.23C399.665 201.218 398.071 219.049 399.102 234.704C400.132 250.359 418.465 295.086 418.465 295.086L416.423 299.074Z" fill="#9CD499"/>
<path d="M400.344 256.344C400.264 256.086 400.191 255.829 400.111 255.572C399.59 249.791 397.114 220.015 400.052 207.391C403.319 193.377 425.088 165.387 426.411 136.062C427.738 106.737 434.832 82.6523 438.725 63.443C443.868 38.0821 431.412 8.6804 420.692 0.61972C420.869 0.435425 421.053 0.299805 421.251 0.195465L424.453 1.27347C425.269 2.02112 426.179 3.10956 427.196 4.5666C446.58 32.2609 461.956 109.241 430.811 155.23C399.666 201.215 398.069 219.048 399.1 234.704C399.378 238.927 400.916 245.266 403.014 252.271L400.344 256.344Z" fill="#74B570"/>
<path d="M828.853 415.836C828.693 414.259 857.174 333.35 893.909 336.51C930.651 339.666 937.081 349.853 962.373 351.455C980.412 352.597 995 350.089 995 350.089C995 350.089 980.45 371.564 946.502 374.075C922.505 375.847 895.747 357.988 877.994 357.063C860.249 356.138 843.205 390.82 843.205 390.82L835.984 409.228L828.853 415.836Z" fill="#9CD499"/>
<path d="M836.907 392.383C836.757 392.383 836.606 392.346 836.462 392.268C836.017 392.02 835.848 391.452 836.099 391.002C852.705 360.855 867.67 344.458 883.192 339.395C897.065 334.87 909.202 339.96 922.054 345.351C925.201 346.671 928.454 348.036 931.702 349.234C960 359.648 975.704 355.746 975.855 355.706C976.356 355.575 976.864 355.873 976.996 356.37C977.121 356.87 976.827 357.376 976.325 357.506C975.673 357.679 959.906 361.594 931.062 350.982C927.771 349.768 924.499 348.396 921.333 347.068C908.813 341.816 896.984 336.853 883.762 341.164C868.723 346.071 854.091 362.193 837.722 391.902C837.559 392.209 837.24 392.383 836.907 392.383Z" fill="#74B570"/>
<path d="M828.619 416.888C844.194 325.382 876.598 280.713 929.219 251.293C981.834 221.873 986.058 212.029 986.058 212.029C986.058 212.029 962.375 286.858 931.129 307.663C899.889 328.465 858.436 339.824 850.031 352.335C841.633 364.85 833.437 411.282 833.437 411.282L828.182 418.846L828.619 416.888Z" fill="#9CD499"/>
<path d="M829.318 412.328C829.28 412.328 829.237 412.325 829.2 412.322C828.691 412.257 828.331 411.791 828.393 411.282C828.412 411.13 830.341 396.114 836.521 376.467C842.229 358.32 852.832 332.378 870.948 311.847C888.842 291.564 905.767 281.259 922.14 271.293C937.39 262.01 951.797 253.242 964.795 237.181C965.117 236.781 965.7 236.719 966.104 237.043C966.501 237.367 966.563 237.953 966.24 238.353C953.037 254.665 938.501 263.515 923.108 272.885C906.853 282.777 890.051 293.007 872.338 313.079C854.451 333.356 843.96 359.024 838.308 376.989C832.172 396.483 830.254 411.366 830.236 411.515C830.18 411.984 829.777 412.328 829.318 412.328Z" fill="#74B570"/>
<path d="M903.823 284.844C903.476 284.844 903.146 284.646 902.981 284.31C902.768 283.845 902.963 283.289 903.427 283.069C903.634 282.976 923.944 273.559 949.087 274.257C949.6 274.27 950.003 274.698 949.99 275.213C949.972 275.725 949.545 276.126 949.032 276.116C924.341 275.421 904.421 284.661 904.22 284.754C904.092 284.816 903.958 284.844 903.823 284.844Z" fill="#74B570"/>
<path d="M867.52 318.129C867.297 318.129 867.069 318.045 866.888 317.878C866.515 317.527 866.491 316.937 866.846 316.561C884.311 297.886 900.415 295.769 935.157 292.758C935.669 292.718 936.12 293.094 936.168 293.606C936.211 294.118 935.831 294.568 935.32 294.615C901.065 297.582 885.207 299.658 868.2 317.834C868.02 318.029 867.773 318.129 867.52 318.129Z" fill="#74B570"/>
<path d="M69.5288 476.244C69.5288 476.244 -13.2316 420.178 16.5249 411.397C46.2813 402.617 103.394 451.039 103.394 451.039H377.952C377.952 451.039 402.086 312.796 420.859 317.197C439.629 321.599 412.661 450.107 412.661 450.107C412.661 450.107 438.132 388.86 450.036 396.669C461.944 404.478 462.145 462.882 462.145 462.882C462.145 462.882 477.007 388.86 495.513 396.669C514.019 404.478 611.347 463.072 611.347 463.072C611.347 463.072 667.164 323.815 676.141 333.883C685.124 343.949 660.012 460.34 660.012 460.34C660.012 460.34 750.323 315.739 762.14 324.581C773.951 333.427 726.741 457.59 726.741 457.59C726.741 457.59 767.82 426.829 779.938 439.865C792.056 452.904 792.422 470.291 792.422 470.291C792.422 470.291 813.164 361.432 828.185 376.126C843.207 390.819 844.135 476.244 844.135 476.244C844.135 476.244 883.19 427.76 891.559 433.347C899.928 438.934 891.559 488.104 891.559 488.104L69.5288 476.244Z" fill="#74B570"/>
<path d="M648.044 481.822H486.898V263.108L530.003 242.436H602.193L648.044 263.108V481.822Z" fill="#F37168"/>
<path d="M530.003 242.436L486.898 263.108H648.044L602.193 242.436H530.003Z" fill="#D54A41"/>
<path d="M611.347 255.414H522.638L538.578 247.078H595.403L611.347 255.414Z" fill="#F37168"/>
<path d="M597.75 252.178H536.866C536.349 252.178 535.934 251.761 535.934 251.247C535.934 250.733 536.349 250.316 536.866 250.316H597.75C598.263 250.316 598.681 250.733 598.681 251.247C598.681 251.761 598.263 252.178 597.75 252.178Z" fill="#993341"/>
<path d="M605.192 330.246H528.153C524.768 330.246 521.999 327.474 521.999 324.085V303.355C521.999 299.966 524.768 297.191 528.153 297.191H605.192C608.577 297.191 611.347 299.966 611.347 303.355V324.085C611.347 327.474 608.577 330.246 605.192 330.246Z" fill="#D54A41"/>
<path d="M761.415 134.563C763.649 126.145 769.76 105.836 760.036 101.384C750.317 96.9333 745.45 90.3955 735.731 93.7337C726.007 97.0724 727.951 104.723 724.478 108.896C721.005 113.069 726.841 126.701 732.393 131.57C737.95 136.438 761.415 134.563 761.415 134.563Z" fill="#58556E"/>
<path d="M637.184 199.214C637.184 199.214 623.776 194.877 619.181 192.528C614.586 190.18 586.338 204.833 593.378 206.724C600.418 208.616 614.603 202.966 614.603 202.966L607.774 206.244C607.774 206.244 613.898 208.339 616.335 207.784C618.771 207.229 625.465 205.626 625.465 205.626L643.628 212.859C643.628 212.859 642.872 202.134 642.543 201.953C642.214 201.772 637.184 199.214 637.184 199.214Z" fill="#F09959"/>
<path d="M640.696 197.834L632.509 197.478L628.996 213.374L642.754 215.971L640.696 197.834Z" fill="#F2E5DE"/>
<path d="M770.76 166.898C783.612 184.984 775.781 198.812 759.753 210.539C743.724 222.267 705.991 225.927 690.034 226.633C674.077 227.34 634.189 215.077 634.189 215.077L636.649 197.479C636.649 197.479 674.423 201.09 689.048 198.578C703.674 196.066 755.53 166.898 755.53 166.898H770.76Z" fill="#58556E"/>
<path d="M740.788 174.959C736.211 177.412 730.922 180.198 725.468 182.977C720.169 196.779 718.681 210.932 692.986 220.321C687.023 222.501 681.361 224.019 676.14 225.054C681.511 226.148 686.393 226.795 690.034 226.634C701.597 226.122 727.591 227.605 745.485 222.041C744.947 208.268 741.243 186.489 740.788 174.959Z" fill="#3A384D"/>
<path d="M755.828 117.343L765.582 149.062L745.488 173.819L751.394 152.557L745.488 130.806L755.828 117.343Z" fill="#F09959"/>
<path d="M755.823 117.345L745.483 130.808L751.357 152.434C755.014 146.117 758.054 138.513 759.752 130.111L755.823 117.345Z" fill="#E38540"/>
<path d="M756.159 130.152C752.799 140.624 743.77 147.083 735.984 144.579C728.208 142.076 724.621 131.557 727.981 121.086C731.341 110.614 740.37 104.155 748.156 106.658C755.937 109.162 759.52 119.681 756.159 130.152Z" fill="#F09959"/>
<path d="M746.568 161.928C746.568 161.928 740.628 165.479 740.642 168.241C740.657 171.003 740.642 172.581 740.642 172.581C740.642 172.581 735.539 180.41 731.6 190.502C727.661 200.593 727.861 205.723 727.861 205.723L752.841 167.656L746.568 161.928Z" fill="#F37168"/>
<path d="M781.73 462.063C781.532 469.956 772.838 475.527 768.715 477.622C755.789 484.196 753.548 488.305 767.73 488.095C778.462 487.936 785.852 483.74 797.476 482.952C804.846 482.449 799.534 474.248 799.931 469.515C800.321 464.779 796.975 458.118 796.975 458.118L781.73 462.063Z" fill="#3A384D"/>
<path d="M719.674 458.118C719.674 458.118 717.06 461.719 710.757 467.163C704.454 472.61 682.233 472.793 694.062 478.38C701.249 481.775 714.48 479.314 722.388 480.453C730.301 481.595 737.196 480.491 737.786 478.38C738.377 476.269 736.163 461.84 736.163 461.84L719.674 458.118Z" fill="#3A384D"/>
<path d="M731.275 248.548C734.373 285.915 723.885 370.247 723.815 389.332C723.74 408.417 712.972 463.925 712.972 463.925C712.972 463.925 733.763 472.374 738.635 472.789C743.512 473.202 753.845 424.374 755.924 399.075C758.012 373.776 769.714 321.798 769.714 321.798L765.202 244.773L731.275 248.548Z" fill="#58556E"/>
<path d="M753.13 420.705C754.419 412.8 755.419 405.239 755.923 399.075C758.012 373.776 769.714 321.798 769.714 321.798L768.21 296.101L730.84 295.567C730.066 309.32 728.932 323.722 727.802 337.112C742.158 368.45 749.648 401.468 753.13 420.705Z" fill="#3A384D"/>
<path d="M732.602 261.059C747.06 339.483 757.701 370.67 767.452 404.401C777.198 438.133 774.978 472.79 774.978 472.79L802.018 476.244C802.018 476.244 812.585 414.855 802.192 384.006C795.812 365.079 800.03 339.439 797.674 311.322C795.012 279.605 792.709 247.178 792.709 247.178L732.602 261.059Z" fill="#58556E"/>
<path d="M788.811 288.438L742.088 308.647C742.3 309.615 741.881 314.382 742.088 315.332C764.971 317.241 779.451 315.072 798.197 319.609C797.768 314.11 796.894 301.142 796.532 295.568L788.811 288.438Z" fill="#3A384D"/>
<path d="M768.985 151.954C788.486 170.428 795.582 189.957 794.926 200.687C793.593 222.409 797.722 305.941 797.722 305.941C797.722 305.941 786.264 308.551 767.068 312.067C747.872 315.581 729.349 310.441 729.349 310.441C729.349 310.441 726.103 250.764 726.253 213.287C726.346 190.439 768.985 151.954 768.985 151.954Z" fill="#58556E"/>
<path d="M788.079 307.989C788.582 298.113 792.115 228.582 791.565 227.482C790.975 226.298 768.518 173.821 768.518 173.821C756.5 190.198 755.74 224.326 755.925 242.672C756.089 259.201 761.059 304.075 762.039 312.8C763.703 312.614 765.382 312.375 767.065 312.068C775.526 310.519 782.699 309.094 788.079 307.989Z" fill="#3A384D"/>
<path d="M767.446 146.937L763.704 139.638L745.482 154.433L744.401 174.7L767.446 146.937Z" fill="#F2E5DE"/>
<path d="M764.296 163.309C764.296 163.309 771.731 159.895 778.575 162.269C775.762 158.822 773.186 155.397 768.984 151.42C768.984 151.42 726.343 189.905 726.257 212.753C726.232 218.337 726.368 223.995 726.616 229.584C726.757 218.137 725.106 209.865 736.324 194.923C746.269 181.68 767.448 170.805 767.448 170.805L764.296 163.309Z" fill="#3A384D"/>
<path d="M767.645 145.118L773.008 155.377L759.754 164.887L763.316 170.805C763.316 170.805 747.332 180.982 740.639 186.192C729.432 194.924 725.489 215.586 725.489 215.586C725.489 215.586 727.069 194.924 740.639 177.789C753.056 162.118 767.645 145.118 767.645 145.118Z" fill="#58556E"/>
<path d="M749.302 306.999L806.144 313.905L802.297 351.584L748.232 346.035L749.302 306.999Z" fill="#BDCCD4"/>
<path d="M781.831 282.623L776.116 303.604L767.451 309.464L774.472 310.596C774.472 310.596 773.197 323.074 770.818 328.741C768.433 334.412 770.998 336.302 780.649 329.688C790.301 323.074 792.979 319.858 792.326 312.108C791.678 304.361 789.905 303.418 790.892 296.99C791.879 290.562 781.636 281.3 781.636 281.3L781.831 282.623Z" fill="#F09959"/>
<path d="M775.734 293.203L773.765 303.976L792.447 306.999L795.54 293.203H775.734Z" fill="#F2E5DE"/>
<path d="M780.882 166.898C787.924 169.796 796.887 195.508 809.993 241.312C813.161 252.381 795.54 302.467 795.54 302.467C795.54 302.467 773.035 301.03 772.756 297.414C772.592 295.341 782.656 255.59 781.324 251.763C779.992 247.935 772.229 236.259 765.582 210.192C758.924 184.126 768.05 161.618 780.882 166.898Z" fill="#58556E"/>
<path d="M728.54 105.279C721.565 122.806 736.717 120.998 743.093 115.572C749.464 110.148 750.291 114.836 750.162 121.276C750.043 127.321 752.454 122.901 751.895 129.717C751.34 136.533 750.905 136.855 753.137 134.491C755.375 132.126 756.073 123.501 756.073 123.501C756.073 123.501 755.548 134.666 758.731 135.428C761.919 136.19 761.419 134.563 761.419 134.563L762.136 115.851L748.093 100.132C748.093 100.132 730.074 100.271 730.055 100.828C730.035 101.384 728.54 105.279 728.54 105.279Z" fill="#58556E"/>
<path d="M756.073 123.5C758.233 118.771 763 120.998 761.727 126.561C760.458 132.124 755.235 132.626 755.235 132.626L756.073 123.5Z" fill="#F09959"/>
<path d="M623.092 217.947C623.068 211.94 602.238 187.797 600.279 186.794C598.329 185.792 565.704 207.134 555.33 217.088C544.956 227.042 543.403 228.643 543.403 228.643C543.403 228.643 553.703 241.363 562.078 251.247L588.877 251.851C594.695 245.04 601.287 237.645 605.516 233.918C614.546 225.959 623.092 217.947 623.092 217.947Z" fill="#DBE5EB"/>
<path d="M576.34 248.895C576.126 248.895 575.916 248.806 575.763 248.633L561.779 232.823C561.497 232.502 561.524 232.012 561.844 231.728C562.165 231.443 562.653 231.473 562.939 231.794L576.92 247.604C577.206 247.925 577.175 248.416 576.855 248.7C576.706 248.831 576.523 248.895 576.34 248.895Z" fill="#3E6BAB"/>
<path d="M578.8 247.098C578.586 247.098 578.371 247.007 578.218 246.831L564.784 231.376C564.504 231.053 564.539 230.563 564.86 230.282C565.182 230 565.672 230.034 565.956 230.357L579.386 245.812C579.666 246.136 579.635 246.626 579.31 246.907C579.164 247.035 578.984 247.098 578.8 247.098Z" fill="#3E6BAB"/>
<path d="M588.315 239.194C588.101 239.194 587.891 239.106 587.736 238.934L575.069 224.712C574.785 224.392 574.813 223.901 575.131 223.616C575.45 223.33 575.94 223.359 576.228 223.679L588.895 237.901C589.179 238.221 589.151 238.711 588.833 238.997C588.685 239.129 588.498 239.194 588.315 239.194Z" fill="#3E6BAB"/>
<path d="M589.691 237.065C589.477 237.065 589.263 236.977 589.111 236.804L576.471 222.535C576.187 222.215 576.218 221.724 576.537 221.44C576.857 221.156 577.348 221.186 577.633 221.506L590.272 235.774C590.553 236.095 590.526 236.585 590.202 236.869C590.058 237.001 589.875 237.065 589.691 237.065Z" fill="#3E6BAB"/>
<path d="M598.675 230.791C598.457 230.791 598.24 230.698 598.086 230.52L586.066 216.5C585.789 216.175 585.825 215.685 586.153 215.406C586.477 215.126 586.963 215.164 587.244 215.489L599.26 229.509C599.54 229.834 599.505 230.324 599.177 230.603C599.03 230.729 598.852 230.791 598.675 230.791Z" fill="#3E6BAB"/>
<path d="M600.097 228.585C599.784 228.585 599.495 228.392 599.376 228.098C598.833 227.196 592.317 219.661 588.293 215.079C588.011 214.757 588.043 214.266 588.364 213.983C588.689 213.701 589.176 213.732 589.457 214.054C600.679 226.844 600.802 227.406 600.854 227.646C600.945 228.065 600.679 228.478 600.259 228.568C600.204 228.58 600.149 228.585 600.097 228.585Z" fill="#3E6BAB"/>
<path d="M568.59 223.576C568.488 223.576 568.385 223.56 568.287 223.525C567.802 223.358 567.545 222.828 567.711 222.342L570.021 215.637L566.742 216.177C566.239 216.26 565.758 215.916 565.675 215.409C565.591 214.901 565.936 214.422 566.439 214.339L571.255 213.546C571.581 213.492 571.903 213.614 572.118 213.864C572.33 214.115 572.391 214.458 572.285 214.768L569.468 222.948C569.336 223.334 568.976 223.576 568.59 223.576Z" fill="#D54A41"/>
<path d="M623.092 206.193C610.731 211.149 597.924 205.769 604.532 205.148C611.145 204.527 616.521 199.975 616.521 199.975L623.092 206.193Z" fill="#F09959"/>
<path d="M392.119 469.603H75.1987V15.2719H392.119V469.603Z" fill="white"/>
<path d="M76.7489 468.05H390.572V16.8212H76.7489V468.05ZM393.67 471.154H73.6495V13.7187H393.67V471.154Z" fill="#63ACC2"/>
<path d="M360.136 136.717H165.147C163.062 136.717 161.356 135.01 161.356 132.921V132.412C161.356 130.323 163.062 128.616 165.147 128.616H360.136C362.222 128.616 363.93 130.323 363.93 132.412V132.921C363.93 135.01 362.222 136.717 360.136 136.717Z" fill="#BBD9FF"/>
<path d="M360.136 151.236H165.147C163.062 151.236 161.356 149.526 161.356 147.44V146.931C161.356 144.842 163.062 143.135 165.147 143.135H360.136C362.222 143.135 363.93 144.842 363.93 146.931V147.44C363.93 149.526 362.222 151.236 360.136 151.236Z" fill="#BBD9FF"/>
<path d="M360.136 193.218H165.147C163.062 193.218 161.356 191.511 161.356 189.422V188.913C161.356 186.824 163.062 185.117 165.147 185.117H360.136C362.222 185.117 363.93 186.824 363.93 188.913V189.422C363.93 191.511 362.222 193.218 360.136 193.218Z" fill="#BBD9FF"/>
<path d="M360.136 207.737H165.147C163.062 207.737 161.356 206.027 161.356 203.938V203.432C161.356 201.344 163.062 199.633 165.147 199.633H360.136C362.222 199.633 363.93 201.344 363.93 203.432V203.938C363.93 206.027 362.222 207.737 360.136 207.737Z" fill="#BBD9FF"/>
<path d="M360.136 259.722H165.147C163.062 259.722 161.356 258.015 161.356 255.926V255.417C161.356 253.328 163.062 251.621 165.147 251.621H360.136C362.222 251.621 363.93 253.328 363.93 255.417V255.926C363.93 258.015 362.222 259.722 360.136 259.722Z" fill="#BBD9FF"/>
<path d="M360.136 274.242H165.147C163.062 274.242 161.356 272.532 161.356 270.443V269.937C161.356 267.848 163.062 266.138 165.147 266.138H360.136C362.222 266.138 363.93 267.848 363.93 269.937V270.443C363.93 272.532 362.222 274.242 360.136 274.242Z" fill="#BBD9FF"/>
<path d="M360.136 311.651H165.147C163.062 311.651 161.356 309.944 161.356 307.855V307.346C161.356 305.261 163.062 303.551 165.147 303.551H360.136C362.222 303.551 363.93 305.261 363.93 307.346V307.855C363.93 309.944 362.222 311.651 360.136 311.651Z" fill="#BBD9FF"/>
<path d="M360.136 326.171H165.147C163.062 326.171 161.356 324.464 161.356 322.375V321.866C161.356 319.777 163.062 318.07 165.147 318.07H360.136C362.222 318.07 363.93 319.777 363.93 321.866V322.375C363.93 324.464 362.222 326.171 360.136 326.171Z" fill="#BBD9FF"/>
<path d="M123.593 155.854H110.665C105.459 155.854 101.224 151.612 101.224 146.4V133.451C101.224 128.24 105.459 123.997 110.665 123.997H123.593C128.799 123.997 133.035 128.24 133.035 133.451V146.4C133.035 151.612 128.799 155.854 123.593 155.854ZM110.665 128.343C107.852 128.343 105.562 130.633 105.562 133.451V146.4C105.562 149.216 107.852 151.509 110.665 151.509H123.593C126.407 151.509 128.696 149.216 128.696 146.4V133.451C128.696 130.633 126.407 128.343 123.593 128.343H110.665Z" fill="#B1D3FF"/>
<path d="M123.593 210.878H110.665C105.459 210.878 101.224 206.635 101.224 201.421V188.475C101.224 183.261 105.459 179.021 110.665 179.021H123.593C128.799 179.021 133.035 183.261 133.035 188.475V201.421C133.035 206.635 128.799 210.878 123.593 210.878ZM110.665 183.366C107.852 183.366 105.562 185.657 105.562 188.475V201.421C105.562 204.239 107.852 206.533 110.665 206.533H123.593C126.407 206.533 128.696 204.239 128.696 201.421V188.475C128.696 185.657 126.407 183.366 123.593 183.366H110.665Z" fill="#B1D3FF"/>
<path d="M117.937 203.283C117.907 203.283 117.877 203.283 117.847 203.283C117.301 203.255 116.794 202.991 116.461 202.554L107.169 190.418C106.545 189.602 106.699 188.432 107.514 187.808C108.329 187.181 109.496 187.336 110.121 188.152L118.076 198.544L139.202 175.877C139.903 175.126 141.08 175.085 141.83 175.787C142.581 176.488 142.622 177.668 141.921 178.419L119.297 202.693C118.944 203.072 118.451 203.283 117.937 203.283Z" fill="#F37168"/>
<path d="M110.665 248.294C107.681 248.294 105.253 250.724 105.253 253.713V266.659C105.253 269.648 107.681 272.078 110.665 272.078H123.593C126.578 272.078 129.006 269.648 129.006 266.659V253.713C129.006 250.724 126.578 248.294 123.593 248.294H110.665ZM123.593 275.803H110.665C105.63 275.803 101.534 271.703 101.534 266.659V253.713C101.534 248.67 105.63 244.569 110.665 244.569H123.593C128.629 244.569 132.725 248.67 132.725 253.713V266.659C132.725 271.703 128.629 275.803 123.593 275.803Z" fill="#9EC8FF"/>
<path d="M123.593 331.137H110.665C105.459 331.137 101.224 326.897 101.224 321.683V308.737C101.224 303.522 105.459 299.28 110.665 299.28H123.593C128.799 299.28 133.035 303.522 133.035 308.737V321.683C133.035 326.897 128.799 331.137 123.593 331.137ZM110.665 303.625C107.852 303.625 105.562 305.919 105.562 308.737V321.683C105.562 324.501 107.852 326.791 110.665 326.791H123.593C126.407 326.791 128.696 324.501 128.696 321.683V308.737C128.696 305.919 126.407 303.625 123.593 303.625H110.665Z" fill="#B1D3FF"/>
<path d="M179.094 86.4077H170.901L155.435 50.5088H164.397L175.305 76.1504L186.367 50.5088H194.612L179.094 86.4077Z" fill="#92C5D4"/>
<path d="M217.095 87.0229C213.373 87.0229 210.018 86.2203 207.031 84.6118C204.043 83.0065 201.705 80.792 200.015 77.9716C198.325 75.1481 197.48 71.9787 197.48 68.4572C197.48 64.9357 198.325 61.7631 200.015 58.9427C201.705 56.1223 204.043 53.9079 207.031 52.3026C210.018 50.6941 213.373 49.8914 217.095 49.8914C220.816 49.8914 224.162 50.6941 227.132 52.3026C230.103 53.9079 232.441 56.1223 234.148 58.9427C235.855 61.7631 236.709 64.9357 236.709 68.4572C236.709 71.9787 235.855 75.1481 234.148 77.9716C232.441 80.792 230.103 83.0065 227.132 84.6118C224.162 86.2203 220.816 87.0229 217.095 87.0229ZM217.095 56.9694C214.978 56.9694 213.066 57.4548 211.359 58.4319C209.651 59.4059 208.312 60.7638 207.339 62.5087C206.365 64.2504 205.879 66.2364 205.879 68.4572C205.879 70.6811 206.365 72.6608 207.339 74.4057C208.312 76.1506 209.651 77.5085 211.359 78.4824C213.066 79.4564 214.978 79.945 217.095 79.945C219.211 79.945 221.123 79.4564 222.83 78.4824C224.537 77.5085 225.877 76.1506 226.851 74.4057C227.824 72.6608 228.31 70.6811 228.31 68.4572C228.31 66.2364 227.824 64.2504 226.851 62.5087C225.877 60.7638 224.537 59.4059 222.83 58.4319C221.123 57.4548 219.211 56.9694 217.095 56.9694Z" fill="#92C5D4"/>
<path d="M260.726 86.4077H252.43V57.2773H240.959V50.5088H272.2V57.2773H260.726V86.4077Z" fill="#92C5D4"/>
<path d="M306.972 86.4077H279.212V50.5088H306.304V57.1759H287.461V64.971H304.105V71.4321H287.461V79.7406H306.972V86.4077Z" fill="#92C5D4"/>
<path d="M353.218 460.626C353.218 460.626 355.738 470.369 364.308 472.83C372.881 475.291 381.236 480.068 369.192 480.214C355.983 480.375 348.411 479.751 342.919 478.83C337.43 477.905 341.026 468.215 341.9 463.599C342.771 458.984 353.218 460.626 353.218 460.626Z" fill="#0F2D5C"/>
<path d="M283.353 452.708C283.353 452.708 281.518 472.169 286.192 473.839C290.863 475.512 296.203 479.522 289.53 479.522C282.854 479.522 274.594 481.102 272.434 473.839C269.8 464.984 263.84 463.488 265.966 458.981C268.089 454.471 274.511 446.097 274.511 446.097L283.353 452.708Z" fill="#0F2D5C"/>
<path d="M372.673 249.703L355.71 464.754C355.71 464.754 346.896 468.832 340.545 469.447C334.192 470.065 321.057 366.389 322.169 349.815C323.282 333.238 310.689 280.598 313.609 263.537C316.525 246.475 372.673 249.703 372.673 249.703Z" fill="#0E3A82"/>
<path d="M338.729 250.839C339.925 250.678 341.131 250.535 342.34 250.408L371.644 261.764L366.239 325.196C352.192 356.107 335.388 385.285 326.945 404.147C323.102 381.716 321.652 357.525 322.169 349.815C322.705 341.832 320.065 325.485 317.505 308.777L338.729 250.839Z" fill="#0F2D5C"/>
<path d="M364.308 282.196C347.863 355.408 283.17 457.59 283.238 457.59C283.31 457.59 271.151 455.486 270.537 449.949C269.924 444.412 277.477 376.303 293.922 360.272C310.367 344.244 311.492 268.149 311.492 268.149L364.308 282.196Z" fill="#0E3A82"/>
<path d="M325.529 173.642C307.032 192.274 295.165 224.314 295.004 232.241C294.842 240.171 316.336 254.318 316.336 254.318L325.529 173.642Z" fill="#368DA8"/>
<path d="M347.819 133.172L341.305 165.631L359.12 184.837L361.491 145.479L347.819 133.172Z" fill="#F09959"/>
<path d="M339.017 157.645C339.017 157.645 329.571 160.966 319.051 187.708C308.532 214.447 304.928 289.646 304.928 289.646C304.928 289.646 325.138 306.831 354.071 306.825C372.509 306.819 378.115 302.669 378.115 302.669C378.115 302.669 379.96 231.254 378.115 208.839C376.274 186.424 348.148 157.084 339.017 157.645Z" fill="#63ACC2"/>
<path d="M378.115 208.839C376.274 186.423 348.148 157.083 339.017 157.645C339.017 157.645 335.1 159.026 329.499 167.149C338.943 162.546 350.714 170.569 361.72 196.551C367.224 209.546 373.066 228.247 378.903 232.325C378.822 223.023 378.593 214.615 378.115 208.839Z" fill="#368DA8"/>
<path d="M354.659 160.491C349.369 154.315 347.404 144.883 346.676 138.874L347.705 133.743L349.031 134.262L361.49 145.479L360.272 165.728C358.534 164.486 356.637 162.794 354.659 160.491Z" fill="#E38540"/>
<path d="M351.889 140.326C353.934 149.985 362.817 155.324 370.194 153.76C377.567 152.192 379.179 142.834 377.136 133.172C375.091 123.513 368.911 118.432 361.537 120C354.164 121.564 349.843 130.664 351.889 140.326Z" fill="#F09959"/>
<path d="M341.85 149.402L335.571 160.02L368.842 184.931C368.842 184.931 366.338 173.385 365.665 169.139C364.996 164.89 342.377 148.508 341.85 149.402Z" fill="#63ACC2"/>
<path d="M378.859 113.438C391.281 117.349 381.125 133.029 377.136 133.172C373.144 133.318 371.687 129.593 368.408 130.45C365.129 131.31 362.036 125.475 360.031 126.75C358.029 128.026 359.302 139.882 360.031 141.887C360.759 143.896 357.483 144.076 357.483 144.076C357.483 144.076 356.147 135.686 354.083 136.236C352.019 136.782 350.488 142.617 347.519 144.076C344.553 145.534 344.553 145.534 344.553 145.534C344.553 145.534 342.73 132.874 340 130.45C337.266 128.026 338.98 119.64 342.857 117.998C346.738 116.356 347.674 108.879 353.032 108.333C358.391 107.783 362.764 111.433 369.865 110.521C376.969 109.608 375.382 112.343 378.859 113.438Z" fill="#3A384D"/>
<path d="M347.395 138.278C348.545 140.988 351.102 142.49 353.107 141.636C355.112 140.783 355.806 137.896 354.657 135.187C353.507 132.477 350.95 130.975 348.944 131.825C346.939 132.679 346.245 135.568 347.395 138.278Z" fill="#F09959"/>
<path d="M332.22 177.506C332.22 177.506 366.502 215.689 378.844 227.499C379.011 238.495 378.928 251.308 378.766 262.695C372.078 259.399 353.497 249.765 342.919 239.551C329.859 226.937 324.032 198.016 332.22 177.506Z" fill="#368DA8"/>
<path d="M433.009 227.791C435.272 213.692 460.819 172.659 470.467 167.923C475.79 165.313 523.817 173.417 523.817 173.417C523.817 173.417 469.333 220.781 462.333 246.168C456.079 268.848 456.846 277.433 456.846 277.433L434.84 261.325C434.84 261.325 429.604 249.01 433.009 227.791Z" fill="#DBE5EB"/>
<path d="M426.961 227.48C426.961 227.48 435.162 217.312 438.432 218.29C441.702 219.271 442.938 219.429 445.805 219.271C448.672 219.112 448.876 223.262 444.779 230.724C440.685 238.185 429.623 239.684 426.961 239.551C424.299 239.417 426.961 227.48 426.961 227.48Z" fill="#F09959"/>
<path d="M336.048 169.138C322.789 172.667 327.103 206.328 334.573 220.223C339.944 230.211 357.883 240.395 368.842 243.25C379.801 246.109 427.339 240.171 427.339 240.171C427.339 240.171 429.087 224.479 425.777 224.479C422.47 224.479 383.22 223.569 372.673 214.022C362.126 204.475 352.059 164.874 336.048 169.138Z" fill="#63ACC2"/>
<path d="M434.84 227.222C431.309 224.947 439.482 211.896 439.482 211.896H448.901C448.901 211.896 445.873 215.468 441.429 219.072C436.984 222.675 434.84 227.222 434.84 227.222Z" fill="#DBE5EB"/>
<path d="M500.268 186.506C500.218 186.506 500.171 186.502 500.124 186.492L477.697 182.23C477.279 182.149 477.001 181.744 477.078 181.321C477.158 180.902 477.57 180.624 477.985 180.704L500.412 184.966C500.834 185.047 501.108 185.453 501.028 185.875C500.961 186.247 500.633 186.506 500.268 186.506Z" fill="#3E6BAB"/>
<path d="M489.056 198.727C488.964 198.727 488.876 198.711 488.784 198.678L471.055 192.141C470.654 191.993 470.444 191.546 470.595 191.146C470.743 190.745 471.189 190.538 471.589 190.686L489.322 197.223C489.725 197.37 489.929 197.817 489.781 198.218C489.666 198.533 489.371 198.727 489.056 198.727Z" fill="#3E6BAB"/>
<path d="M485.791 202.137C485.703 202.137 485.615 202.124 485.527 202.092C480.135 200.129 469.709 196.345 468.829 196.084C468.415 195.96 468.183 195.529 468.304 195.118C468.428 194.707 468.858 194.471 469.269 194.596C470.413 194.938 485.42 200.4 486.059 200.632C486.456 200.779 486.665 201.226 486.518 201.628C486.404 201.945 486.107 202.137 485.791 202.137Z" fill="#3E6BAB"/>
<path d="M473.022 217.138C472.921 217.138 472.819 217.119 472.72 217.078C467.158 214.717 458.532 211.129 457.549 210.931C457.126 210.848 456.856 210.437 456.941 210.02C457.024 209.599 457.435 209.325 457.851 209.411C459.306 209.701 471.896 215.042 473.328 215.647C473.722 215.816 473.904 216.272 473.735 216.667C473.611 216.963 473.325 217.138 473.022 217.138Z" fill="#3E6BAB"/>
<path d="M471.32 220.332C471.222 220.332 471.123 220.313 471.025 220.275L455.983 213.98C455.59 213.815 455.403 213.361 455.567 212.967C455.732 212.57 456.186 212.383 456.579 212.548L471.621 218.843C472.014 219.008 472.201 219.462 472.037 219.856C471.913 220.154 471.624 220.332 471.32 220.332Z" fill="#3E6BAB"/>
<path d="M503.765 182.813C503.718 182.813 503.668 182.81 503.62 182.799L480.043 178.348C479.621 178.27 479.345 177.862 479.426 177.443C479.503 177.021 479.908 176.745 480.329 176.822L503.907 181.274C504.328 181.355 504.605 181.76 504.527 182.182C504.456 182.553 504.129 182.813 503.765 182.813Z" fill="#3E6BAB"/>
<path d="M462.146 230.366C462.049 230.366 461.949 230.347 461.853 230.307L451.071 225.855C450.673 225.69 450.482 225.237 450.648 224.841C450.81 224.445 451.261 224.258 451.66 224.42L462.441 228.872C462.837 229.034 463.027 229.489 462.862 229.886C462.737 230.185 462.451 230.366 462.146 230.366Z" fill="#3E6BAB"/>
<path d="M460.061 235.008C459.953 235.008 459.844 234.983 459.739 234.937L449.712 230.295C449.324 230.115 449.157 229.652 449.337 229.264C449.513 228.875 449.973 228.704 450.36 228.885L460.39 233.526C460.778 233.706 460.946 234.169 460.769 234.558C460.635 234.84 460.356 235.008 460.061 235.008Z" fill="#3E6BAB"/>
<path d="M454.483 252.438C454.378 252.438 454.269 252.416 454.167 252.369L440.449 246.211C440.059 246.038 439.885 245.578 440.059 245.187C440.236 244.796 440.694 244.622 441.085 244.796L454.799 250.954C455.19 251.128 455.366 251.587 455.19 251.978C455.06 252.267 454.778 252.438 454.483 252.438Z" fill="#3E6BAB"/>
<path d="M452.401 256.606C452.295 256.606 452.19 256.584 452.088 256.538C446.406 254.021 439.575 250.979 439.297 250.793C438.94 250.554 438.844 250.073 439.083 249.716C439.312 249.371 439.771 249.269 440.124 249.48C440.639 249.75 447.922 252.993 452.717 255.119C453.107 255.293 453.284 255.752 453.11 256.143C452.983 256.432 452.698 256.606 452.401 256.606Z" fill="#3E6BAB"/>
<path d="M456.749 194.338C456.559 194.338 456.365 194.278 456.204 194.16C455.925 193.954 455.779 193.611 455.833 193.269L456.777 186.923C456.853 186.412 457.329 186.063 457.836 186.139C458.343 186.215 458.694 186.688 458.615 187.196L457.934 191.777L470.24 185.657C470.703 185.428 471.26 185.615 471.492 186.076C471.716 186.539 471.53 187.097 471.07 187.326L457.164 194.24C457.034 194.306 456.891 194.338 456.749 194.338Z" fill="#D54A41"/>
</svg>
