<svg width="995" height="488" fill="none" xmlns="http://www.w3.org/2000/svg"><path d="M95.58 462.882S-32.552 291.75 8.351 293.705c40.903 1.956 92.408 102.368 92.408 102.368S21.366 232.36 36.24 221.187c14.874-11.173 94.626 164.629 94.626 164.629s241.798-87.843 273.743-136.655c46.239-70.651 47.581-161.748 81.184-170.295 33.603-8.547 53.553-62.41 58.639-42.77 5.086 19.638-20.598 61.543-7.565 81.921 13.03 20.377-24.488 82.652-41.354 107.121-24.213 35.13-25.012 124.624-15.327 126.738 9.689 2.114 49.702-133.314 58.522-175.757 8.821-42.443 55.662-37.921 75.007-69.041 19.338-31.12 30.233-85.066 38.727-61.817 8.5 23.25-1.404 64.41 7.27 86.653 8.668 22.243-42.855 182.472-36.621 201.969 6.246 19.496 27.58-73.493 67.879-79.414 40.305-5.921-19.428 166.236-19.428 166.236S774.703 223.274 817.461 219.28c42.765-3.995 56.912-44.954 74.936-48.679 18.025-3.725 22.88 21.881 0 51.902-22.873 30.02-10.129 67.918-36.093 115.968-25.977 48.053-29.892 130.979-29.892 130.979s100.823-94.622 122.923-85.797c22.101 8.827-48.611 76.688-48.611 76.688s70.976-38.878 87.577-29.164c16.599 9.712-57.247 56.927-57.247 56.927H117.13l-21.55-25.222z" fill="#9CD499"/><path d="M416.423 299.074c-27.723-65.688-30.452-90.787-9.53-154.137 20.918-63.344.929-168.064 20.303-140.37 19.382 27.693 34.762 104.676 3.616 150.663-31.147 45.988-32.741 63.819-31.71 79.474 1.03 15.655 19.363 60.382 19.363 60.382l-2.042 3.988z" fill="#9CD499"/><path d="M400.344 256.344c-.08-.258-.153-.515-.233-.772-.521-5.781-2.997-35.557-.059-48.181 3.267-14.014 25.036-42.004 26.359-71.329 1.327-29.325 8.421-53.41 12.314-72.619 5.143-25.36-7.313-54.763-18.033-62.823.177-.185.361-.32.559-.425l3.202 1.078c.816.748 1.726 1.837 2.743 3.294 19.384 27.694 34.76 104.674 3.615 150.663-31.145 45.985-32.742 63.818-31.711 79.474.278 4.223 1.816 10.562 3.914 17.567l-2.67 4.073z" fill="#74B570"/><path d="M828.853 415.836c-.16-1.577 28.321-82.486 65.056-79.326 36.742 3.156 43.172 13.343 68.464 14.945 18.039 1.142 32.627-1.366 32.627-1.366s-14.55 21.475-48.498 23.986c-23.997 1.772-50.755-16.087-68.508-17.012-17.745-.925-34.789 33.757-34.789 33.757l-7.221 18.408-7.131 6.608z" fill="#9CD499"/><path d="M836.907 392.383a.928.928 0 0 1-.808-1.381c16.606-30.147 31.571-46.544 47.093-51.607 13.873-4.525 26.01.565 38.862 5.956 3.147 1.32 6.4 2.685 9.648 3.883 28.298 10.414 44.002 6.512 44.153 6.472a.934.934 0 0 1 1.141.664.934.934 0 0 1-.671 1.136c-.652.173-16.419 4.088-45.263-6.524-3.291-1.214-6.563-2.586-9.729-3.914-12.52-5.252-24.349-10.215-37.571-5.904-15.039 4.907-29.671 21.029-46.04 50.738a.917.917 0 0 1-.815.481z" fill="#74B570"/><path d="M828.619 416.888c15.575-91.506 47.979-136.175 100.6-165.595 52.615-29.42 56.839-39.264 56.839-39.264s-23.683 74.829-54.929 95.634c-31.24 20.802-72.693 32.161-81.098 44.672-8.398 12.515-16.594 58.947-16.594 58.947l-5.255 7.564.437-1.958z" fill="#9CD499"/><path d="M829.318 412.328a.934.934 0 0 1-.925-1.046c.019-.152 1.948-15.168 8.128-34.815 5.708-18.147 16.311-44.089 34.427-64.62 17.894-20.283 34.819-30.588 51.192-40.554 15.25-9.283 29.657-18.051 42.655-34.112a.93.93 0 1 1 1.445 1.172c-13.203 16.312-27.739 25.162-43.132 34.532-16.255 9.892-33.057 20.122-50.77 40.194-17.887 20.277-28.378 45.945-34.03 63.91-6.136 19.494-8.054 34.377-8.072 34.526a.927.927 0 0 1-.918.813z" fill="#74B570"/><path d="M903.823 284.844a.94.94 0 0 1-.842-.534.94.94 0 0 1 .446-1.241c.207-.093 20.517-9.51 45.66-8.812a.93.93 0 0 1 .903.956.938.938 0 0 1-.958.903c-24.691-.695-44.611 8.545-44.812 8.638a.902.902 0 0 1-.397.09zM867.52 318.129a.931.931 0 0 1-.674-1.568c17.465-18.675 33.569-20.792 68.311-23.803a.94.94 0 0 1 1.011.848.936.936 0 0 1-.848 1.009c-34.255 2.967-50.113 5.043-67.12 23.219a.92.92 0 0 1-.68.295zM69.529 476.244s-82.76-56.066-53.004-64.847c29.756-8.78 86.869 39.642 86.869 39.642h274.558s24.134-138.243 42.907-133.842c18.77 4.402-8.198 132.91-8.198 132.91s25.471-61.247 37.375-53.438c11.908 7.809 12.109 66.213 12.109 66.213s14.862-74.022 33.368-66.213c18.506 7.809 115.834 66.403 115.834 66.403s55.817-139.257 64.794-129.189c8.983 10.066-16.129 126.457-16.129 126.457s90.311-144.601 102.128-135.759c11.811 8.846-35.399 133.009-35.399 133.009s41.079-30.761 53.197-17.725c12.118 13.039 12.484 30.426 12.484 30.426s20.742-108.859 35.763-94.165c15.022 14.693 15.95 100.118 15.95 100.118s39.055-48.484 47.424-42.897c8.369 5.587 0 54.757 0 54.757l-822.03-11.86z" fill="#74B570"/><path d="M648.044 481.822H486.898V263.108l43.105-20.672h72.19l45.851 20.672v218.714z" fill="#F37168"/><path d="m530.003 242.436-43.105 20.672h161.146l-45.851-20.672h-72.19z" fill="#D54A41"/><path d="M611.347 255.414h-88.709l15.94-8.336h56.825l15.944 8.336z" fill="#F37168"/><path d="M597.75 252.178h-60.884a.93.93 0 1 1 0-1.862h60.884a.932.932 0 0 1 0 1.862z" fill="#993341"/><path d="M605.192 330.246h-77.039c-3.385 0-6.154-2.772-6.154-6.161v-20.73c0-3.389 2.769-6.164 6.154-6.164h77.039c3.385 0 6.155 2.775 6.155 6.164v20.73c0 3.389-2.77 6.161-6.155 6.161z" fill="#D54A41"/><path d="M761.415 134.563c2.234-8.418 8.345-28.727-1.379-33.179-9.719-4.45-14.586-10.989-24.305-7.65-9.724 3.338-7.78 10.989-11.253 15.162s2.363 17.805 7.915 22.674c5.557 4.868 29.022 2.993 29.022 2.993z" fill="#58556E"/><path d="M637.184 199.214s-13.408-4.337-18.003-6.686c-4.595-2.348-32.843 12.305-25.803 14.196 7.04 1.892 21.225-3.758 21.225-3.758l-6.829 3.278s6.124 2.095 8.561 1.54c2.436-.555 9.13-2.158 9.13-2.158l18.163 7.233s-.756-10.725-1.085-10.906a1053.12 1053.12 0 0 0-5.359-2.739z" fill="#F09959"/><path d="m640.696 197.834-8.187-.356-3.513 15.896 13.758 2.597-2.058-18.137z" fill="#F2E5DE"/><path d="M770.76 166.898c12.852 18.086 5.021 31.914-11.007 43.641-16.029 11.728-53.762 15.388-69.719 16.094-15.957.707-55.845-11.556-55.845-11.556l2.46-17.598s37.774 3.611 52.399 1.099c14.626-2.512 66.482-31.68 66.482-31.68h15.23z" fill="#58556E"/><path d="M740.788 174.959a844.465 844.465 0 0 1-15.32 8.018c-5.299 13.802-6.787 27.955-32.482 37.344a113.151 113.151 0 0 1-16.846 4.733c5.371 1.094 10.253 1.741 13.894 1.58 11.563-.512 37.557.971 55.451-4.593-.538-13.773-4.242-35.552-4.697-47.082z" fill="#3A384D"/><path d="m755.828 117.343 9.754 31.719-20.094 24.757 5.906-21.262-5.906-21.751 10.34-13.463z" fill="#F09959"/><path d="m755.823 117.345-10.34 13.463 5.874 21.626c3.657-6.317 6.697-13.921 8.395-22.323l-3.929-12.766z" fill="#E38540"/><path d="M756.159 130.152c-3.36 10.472-12.389 16.931-20.175 14.427-7.776-2.503-11.363-13.022-8.003-23.493 3.36-10.472 12.389-16.931 20.175-14.428 7.781 2.504 11.364 13.023 8.003 23.494z" fill="#F09959"/><path d="M746.568 161.928s-5.94 3.551-5.926 6.313c.015 2.762 0 4.34 0 4.34s-5.103 7.829-9.042 17.921c-3.939 10.091-3.739 15.221-3.739 15.221l24.98-38.067-6.273-5.728z" fill="#F37168"/><path d="M781.73 462.063c-.198 7.893-8.892 13.464-13.015 15.559-12.926 6.574-15.167 10.683-.985 10.473 10.732-.159 18.122-4.355 29.746-5.143 7.37-.503 2.058-8.704 2.455-13.437.39-4.736-2.956-11.397-2.956-11.397l-15.245 3.945zM719.674 458.118s-2.614 3.601-8.917 9.045c-6.303 5.447-28.524 5.63-16.695 11.217 7.187 3.395 20.418.934 28.326 2.073 7.913 1.142 14.808.038 15.398-2.073.591-2.111-1.623-16.54-1.623-16.54l-16.489-3.722z" fill="#3A384D"/><path d="M731.275 248.548c3.098 37.367-7.39 121.699-7.46 140.784-.075 19.085-10.843 74.593-10.843 74.593s20.791 8.449 25.663 8.864c4.877.413 15.21-48.415 17.289-73.714 2.088-25.299 13.79-77.277 13.79-77.277l-4.512-77.025-33.927 3.775z" fill="#58556E"/><path d="M753.13 420.705c1.289-7.905 2.289-15.466 2.793-21.63 2.089-25.299 13.791-77.277 13.791-77.277l-1.504-25.697-37.37-.534c-.774 13.753-1.908 28.155-3.038 41.545 14.356 31.338 21.846 64.356 25.328 83.593z" fill="#3A384D"/><path d="M732.602 261.059c14.458 78.424 25.099 109.611 34.85 143.342 9.746 33.732 7.526 68.389 7.526 68.389l27.04 3.454s10.567-61.389.174-92.238c-6.38-18.927-2.162-44.567-4.518-72.684-2.662-31.717-4.965-64.144-4.965-64.144l-60.107 13.881z" fill="#58556E"/><path d="m788.811 288.438-46.723 20.209c.212.968-.207 5.735 0 6.685 22.883 1.909 37.363-.26 56.109 4.277-.429-5.499-1.303-18.467-1.665-24.041l-7.721-7.13z" fill="#3A384D"/><path d="M768.985 151.954c19.501 18.474 26.597 38.003 25.941 48.733-1.333 21.722 2.796 105.254 2.796 105.254s-11.458 2.61-30.654 6.126c-19.196 3.514-37.719-1.626-37.719-1.626s-3.246-59.677-3.096-97.154c.093-22.848 42.732-61.333 42.732-61.333z" fill="#58556E"/><path d="M788.079 307.989c.503-9.876 4.036-79.407 3.486-80.507-.59-1.184-23.047-53.661-23.047-53.661-12.018 16.377-12.778 50.505-12.593 68.851.164 16.529 5.134 61.403 6.114 70.128a73.515 73.515 0 0 0 5.026-.732 998.068 998.068 0 0 0 21.014-4.079z" fill="#3A384D"/><path d="m767.446 146.937-3.742-7.299-18.222 14.795-1.081 20.267 23.045-27.763z" fill="#F2E5DE"/><path d="M764.296 163.309s7.435-3.414 14.279-1.04c-2.813-3.447-5.389-6.872-9.591-10.849 0 0-42.641 38.485-42.727 61.333a346.31 346.31 0 0 0 .359 16.831c.141-11.447-1.51-19.719 9.708-34.661 9.945-13.243 31.124-24.118 31.124-24.118l-3.152-7.496z" fill="#3A384D"/><path d="m767.645 145.118 5.363 10.259-13.254 9.51 3.562 5.918s-15.984 10.177-22.677 15.387c-11.207 8.732-15.15 29.394-15.15 29.394s1.58-20.662 15.15-37.797c12.417-15.671 27.006-32.671 27.006-32.671z" fill="#58556E"/><path d="m749.302 306.999 56.842 6.906-3.847 37.679-54.065-5.549 1.07-39.036z" fill="#BDCCD4"/><path d="m781.831 282.623-5.715 20.981-8.665 5.86 7.021 1.132s-1.275 12.478-3.654 18.145c-2.385 5.671.18 7.561 9.831.947 9.652-6.614 12.33-9.83 11.677-17.58-.648-7.747-2.421-8.69-1.434-15.118.987-6.428-9.256-15.69-9.256-15.69l.195 1.323z" fill="#F09959"/><path d="m775.734 293.203-1.969 10.773 18.682 3.023 3.093-13.796h-19.806z" fill="#F2E5DE"/><path d="M780.882 166.898c7.042 2.898 16.005 28.61 29.111 74.414 3.168 11.069-14.453 61.155-14.453 61.155s-22.505-1.437-22.784-5.053c-.164-2.073 9.9-41.824 8.568-45.651-1.332-3.828-9.095-15.504-15.742-41.571-6.658-26.066 2.468-48.574 15.3-43.294zM728.54 105.279c-6.975 17.527 8.177 15.719 14.553 10.293 6.371-5.424 7.198-.736 7.069 5.704-.119 6.045 2.292 1.625 1.733 8.441-.555 6.816-.99 7.138 1.242 4.774 2.238-2.365 2.936-10.99 2.936-10.99s-.525 11.165 2.658 11.927c3.188.762 2.688-.865 2.688-.865l.717-18.712-14.043-15.719s-18.019.139-18.038.696c-.02.556-1.515 4.451-1.515 4.451z" fill="#58556E"/><path d="M756.073 123.5c2.16-4.729 6.927-2.502 5.654 3.061-1.269 5.563-6.492 6.065-6.492 6.065l.838-9.126z" fill="#F09959"/><path d="M623.092 217.947c-.024-6.007-20.854-30.15-22.813-31.153-1.95-1.002-34.575 20.34-44.949 30.294-10.374 9.954-11.927 11.555-11.927 11.555s10.3 12.72 18.675 22.604l26.799.604c5.818-6.811 12.41-14.206 16.639-17.933 9.03-7.959 17.576-15.971 17.576-15.971z" fill="#DBE5EB"/><path d="M576.34 248.895a.767.767 0 0 1-.577-.262l-13.984-15.81a.775.775 0 1 1 1.16-1.029l13.981 15.81a.776.776 0 0 1-.58 1.291zM578.8 247.098a.772.772 0 0 1-.582-.267l-13.434-15.455a.777.777 0 0 1 1.172-1.019l13.43 15.455a.776.776 0 0 1-.586 1.286zM588.315 239.194a.775.775 0 0 1-.579-.26l-12.667-14.222a.777.777 0 0 1 1.159-1.033l12.667 14.222a.78.78 0 0 1-.062 1.096.779.779 0 0 1-.518.197zM589.691 237.065a.77.77 0 0 1-.58-.261l-12.64-14.269a.777.777 0 0 1 1.162-1.029l12.639 14.268a.776.776 0 0 1-.07 1.095.751.751 0 0 1-.511.196zM598.675 230.791a.779.779 0 0 1-.589-.271l-12.02-14.02a.775.775 0 0 1 .087-1.094.772.772 0 0 1 1.091.083l12.016 14.02a.772.772 0 0 1-.083 1.094.769.769 0 0 1-.502.188zM600.097 228.585a.782.782 0 0 1-.721-.487c-.543-.902-7.059-8.437-11.083-13.019a.779.779 0 0 1 .071-1.096.774.774 0 0 1 1.093.071c11.222 12.79 11.345 13.352 11.397 13.592a.774.774 0 0 1-.757.939z" fill="#3E6BAB"/><path d="M568.59 223.576a.932.932 0 0 1-.879-1.234l2.31-6.705-3.279.54a.931.931 0 0 1-.303-1.838l4.816-.793a.932.932 0 0 1 1.03 1.222l-2.817 8.18a.928.928 0 0 1-.878.628z" fill="#D54A41"/><path d="M623.092 206.193c-12.361 4.956-25.168-.424-18.56-1.045 6.613-.621 11.989-5.173 11.989-5.173l6.571 6.218z" fill="#F09959"/><path d="M392.119 469.603H75.199V15.272h316.92v454.331z" fill="#fff"/><path d="M76.749 468.05h313.823V16.821H76.749V468.05zm316.921 3.104H73.65V13.719h320.02v457.435z" fill="#63ACC2"/><path d="M360.136 136.717H165.147a3.804 3.804 0 0 1-3.791-3.796v-.509a3.804 3.804 0 0 1 3.791-3.796h194.989a3.806 3.806 0 0 1 3.794 3.796v.509a3.806 3.806 0 0 1-3.794 3.796zM360.136 151.236H165.147a3.806 3.806 0 0 1-3.791-3.796v-.509a3.804 3.804 0 0 1 3.791-3.796h194.989a3.806 3.806 0 0 1 3.794 3.796v.509a3.808 3.808 0 0 1-3.794 3.796zM360.136 193.218H165.147a3.804 3.804 0 0 1-3.791-3.796v-.509a3.804 3.804 0 0 1 3.791-3.796h194.989a3.806 3.806 0 0 1 3.794 3.796v.509a3.806 3.806 0 0 1-3.794 3.796zM360.136 207.737H165.147c-2.085 0-3.791-1.71-3.791-3.799v-.506c0-2.088 1.706-3.799 3.791-3.799h194.989a3.81 3.81 0 0 1 3.794 3.799v.506a3.808 3.808 0 0 1-3.794 3.799zM360.136 259.722H165.147a3.804 3.804 0 0 1-3.791-3.796v-.509a3.804 3.804 0 0 1 3.791-3.796h194.989a3.806 3.806 0 0 1 3.794 3.796v.509a3.806 3.806 0 0 1-3.794 3.796zM360.136 274.242H165.147c-2.085 0-3.791-1.71-3.791-3.799v-.506c0-2.089 1.706-3.799 3.791-3.799h194.989a3.808 3.808 0 0 1 3.794 3.799v.506a3.808 3.808 0 0 1-3.794 3.799zM360.136 311.651H165.147a3.804 3.804 0 0 1-3.791-3.796v-.509a3.806 3.806 0 0 1 3.791-3.795h194.989a3.808 3.808 0 0 1 3.794 3.795v.509a3.806 3.806 0 0 1-3.794 3.796zM360.136 326.171H165.147a3.804 3.804 0 0 1-3.791-3.796v-.509a3.804 3.804 0 0 1 3.791-3.796h194.989a3.806 3.806 0 0 1 3.794 3.796v.509a3.806 3.806 0 0 1-3.794 3.796z" fill="#BBD9FF"/><path d="M123.593 155.854h-12.928c-5.206 0-9.441-4.242-9.441-9.454v-12.949c0-5.211 4.235-9.454 9.441-9.454h12.928c5.206 0 9.442 4.243 9.442 9.454V146.4c0 5.212-4.236 9.454-9.442 9.454zm-12.928-27.511a5.11 5.11 0 0 0-5.103 5.108V146.4a5.113 5.113 0 0 0 5.103 5.109h12.928a5.112 5.112 0 0 0 5.103-5.109v-12.949a5.11 5.11 0 0 0-5.103-5.108h-12.928zM123.593 210.878h-12.928c-5.206 0-9.441-4.243-9.441-9.457v-12.946c0-5.214 4.235-9.454 9.441-9.454h12.928c5.206 0 9.442 4.24 9.442 9.454v12.946c0 5.214-4.236 9.457-9.442 9.457zm-12.928-27.512a5.112 5.112 0 0 0-5.103 5.109v12.946c0 2.818 2.29 5.112 5.103 5.112h12.928c2.814 0 5.103-2.294 5.103-5.112v-12.946a5.111 5.111 0 0 0-5.103-5.109h-12.928z" fill="#B1D3FF"/><path d="M117.937 203.283h-.09a1.86 1.86 0 0 1-1.386-.729l-9.292-12.136a1.864 1.864 0 0 1 .345-2.61 1.857 1.857 0 0 1 2.607.344l7.955 10.392 21.126-22.667a1.858 1.858 0 0 1 2.628-.09c.751.701.792 1.881.091 2.632l-22.624 24.274c-.353.379-.846.59-1.36.59z" fill="#F37168"/><path d="M110.665 248.294a5.421 5.421 0 0 0-5.412 5.419v12.946a5.421 5.421 0 0 0 5.412 5.419h12.928a5.421 5.421 0 0 0 5.413-5.419v-12.946a5.421 5.421 0 0 0-5.413-5.419h-12.928zm12.928 27.509h-12.928c-5.035 0-9.131-4.1-9.131-9.144v-12.946c0-5.043 4.096-9.144 9.131-9.144h12.928c5.036 0 9.132 4.101 9.132 9.144v12.946c0 5.044-4.096 9.144-9.132 9.144z" fill="#9EC8FF"/><path d="M123.593 331.137h-12.928c-5.206 0-9.441-4.24-9.441-9.454v-12.946c0-5.215 4.235-9.457 9.441-9.457h12.928c5.206 0 9.442 4.242 9.442 9.457v12.946c0 5.214-4.236 9.454-9.442 9.454zm-12.928-27.512c-2.813 0-5.103 2.294-5.103 5.112v12.946a5.11 5.11 0 0 0 5.103 5.108h12.928a5.11 5.11 0 0 0 5.103-5.108v-12.946c0-2.818-2.289-5.112-5.103-5.112h-12.928z" fill="#B1D3FF"/><path d="M179.094 86.408h-8.193l-15.466-35.9h8.962l10.908 25.642 11.062-25.641h8.245l-15.518 35.899zM217.095 87.023c-3.722 0-7.077-.803-10.064-2.411-2.988-1.605-5.326-3.82-7.016-6.64-1.69-2.824-2.535-5.993-2.535-9.515 0-3.521.845-6.694 2.535-9.514 1.69-2.82 4.028-5.035 7.016-6.64 2.987-1.609 6.342-2.412 10.064-2.412 3.721 0 7.067.803 10.037 2.412 2.971 1.605 5.309 3.82 7.016 6.64 1.707 2.82 2.561 5.993 2.561 9.514 0 3.522-.854 6.691-2.561 9.515-1.707 2.82-4.045 5.035-7.016 6.64-2.97 1.608-6.316 2.41-10.037 2.41zm0-30.054c-2.117 0-4.029.486-5.736 1.463-1.708.974-3.047 2.332-4.02 4.077-.974 1.741-1.46 3.727-1.46 5.948 0 2.224.486 4.204 1.46 5.949.973 1.745 2.312 3.102 4.02 4.076 1.707.974 3.619 1.463 5.736 1.463 2.116 0 4.028-.489 5.735-1.463 1.707-.974 3.047-2.331 4.021-4.076.973-1.745 1.459-3.725 1.459-5.949 0-2.22-.486-4.207-1.459-5.948-.974-1.745-2.314-3.103-4.021-4.077-1.707-.977-3.619-1.463-5.735-1.463zM260.726 86.408h-8.296v-29.13h-11.471v-6.77H272.2v6.77h-11.474v29.13zM306.972 86.408h-27.76v-35.9h27.092v6.668h-18.843v7.795h16.644v6.461h-16.644v8.309h19.511v6.667z" fill="#92C5D4"/><path d="M353.218 460.626s2.52 9.743 11.09 12.204c8.573 2.461 16.928 7.238 4.884 7.384-13.209.161-20.781-.463-26.273-1.384-5.489-.925-1.893-10.615-1.019-15.231.871-4.615 11.318-2.973 11.318-2.973zM283.353 452.708s-1.835 19.461 2.839 21.131c4.671 1.673 10.011 5.683 3.338 5.683-6.676 0-14.936 1.58-17.096-5.683-2.634-8.855-8.594-10.351-6.468-14.858 2.123-4.51 8.545-12.884 8.545-12.884l8.842 6.611z" fill="#0F2D5C"/><path d="M372.673 249.703 355.71 464.754s-8.814 4.078-15.165 4.693c-6.353.618-19.488-103.058-18.376-119.632 1.113-16.577-11.48-69.217-8.56-86.278 2.916-17.062 59.064-13.834 59.064-13.834z" fill="#0E3A82"/><path d="M338.729 250.839c1.196-.161 2.402-.304 3.611-.431l29.304 11.356-5.405 63.432c-14.047 30.911-30.851 60.089-39.294 78.951-3.843-22.431-5.293-46.622-4.776-54.332.536-7.983-2.104-24.33-4.664-41.038l21.224-57.938z" fill="#0F2D5C"/><path d="M364.308 282.196c-16.445 73.212-81.138 175.394-81.07 175.394.072 0-12.087-2.104-12.701-7.641-.613-5.537 6.94-73.646 23.385-89.677 16.445-16.028 17.57-92.123 17.57-92.123l52.816 14.047z" fill="#0E3A82"/><path d="M325.529 173.642c-18.497 18.632-30.364 50.672-30.525 58.599-.162 7.93 21.332 22.077 21.332 22.077l9.193-80.676z" fill="#368DA8"/><path d="m347.819 133.172-6.514 32.459 17.815 19.206 2.371-39.358-13.672-12.307z" fill="#F09959"/><path d="M339.017 157.645s-9.446 3.321-19.966 30.063c-10.519 26.739-14.123 101.938-14.123 101.938s20.21 17.185 49.143 17.179c18.438-.006 24.044-4.156 24.044-4.156s1.845-71.415 0-93.83c-1.841-22.415-29.967-51.755-39.098-51.194z" fill="#63ACC2"/><path d="M378.115 208.839c-1.841-22.416-29.967-51.756-39.098-51.194 0 0-3.917 1.381-9.518 9.504 9.444-4.603 21.215 3.42 32.221 29.402 5.504 12.995 11.346 31.696 17.183 35.774-.081-9.302-.31-17.71-.788-23.486z" fill="#368DA8"/><path d="M354.659 160.491c-5.29-6.176-7.255-15.608-7.983-21.617l1.029-5.131 1.326.519 12.459 11.217-1.218 20.249c-1.738-1.242-3.635-2.934-5.613-5.237z" fill="#E38540"/><path d="M351.889 140.326c2.045 9.659 10.928 14.998 18.305 13.434 7.373-1.568 8.985-10.926 6.942-20.588-2.045-9.659-8.225-14.74-15.599-13.172-7.373 1.564-11.694 10.664-9.648 20.326z" fill="#F09959"/><path d="m341.85 149.402-6.279 10.618 33.271 24.911s-2.504-11.546-3.177-15.792c-.669-4.249-23.288-20.631-23.815-19.737z" fill="#63ACC2"/><path d="M378.859 113.438c12.422 3.911 2.266 19.591-1.723 19.734-3.992.146-5.449-3.579-8.728-2.722-3.279.86-6.372-4.975-8.377-3.7-2.002 1.276-.729 13.132 0 15.137.728 2.009-2.548 2.189-2.548 2.189s-1.336-8.39-3.4-7.84c-2.064.546-3.595 6.381-6.564 7.84l-2.966 1.458s-1.823-12.66-4.553-15.084c-2.734-2.424-1.02-10.81 2.857-12.452 3.881-1.642 4.817-9.119 10.175-9.665 5.359-.55 9.732 3.1 16.833 2.188 7.104-.913 5.517 1.822 8.994 2.917z" fill="#3A384D"/><path d="M347.395 138.278c1.15 2.71 3.707 4.212 5.712 3.358 2.005-.853 2.699-3.74 1.55-6.449-1.15-2.71-3.707-4.212-5.713-3.362-2.005.854-2.699 3.743-1.549 6.453z" fill="#F09959"/><path d="M332.22 177.506s34.282 38.183 46.624 49.993c.167 10.996.084 23.809-.078 35.196-6.688-3.296-25.269-12.93-35.847-23.144-13.06-12.614-18.887-41.535-10.699-62.045z" fill="#368DA8"/><path d="M433.009 227.791c2.263-14.099 27.81-55.132 37.458-59.868 5.323-2.61 53.35 5.494 53.35 5.494s-54.484 47.364-61.484 72.751c-6.254 22.68-5.487 31.265-5.487 31.265l-22.006-16.108s-5.236-12.315-1.831-33.534z" fill="#DBE5EB"/><path d="M426.961 227.48s8.201-10.168 11.471-9.19c3.27.981 4.506 1.139 7.373.981 2.867-.159 3.071 3.991-1.026 11.453-4.094 7.461-15.156 8.96-17.818 8.827-2.662-.134 0-12.071 0-12.071z" fill="#F09959"/><path d="M336.048 169.138c-13.259 3.529-8.945 37.19-1.475 51.085 5.371 9.988 23.31 20.172 34.269 23.027 10.959 2.859 58.497-3.079 58.497-3.079s1.748-15.692-1.562-15.692c-3.307 0-42.557-.91-53.104-10.457-10.547-9.547-20.614-49.148-36.625-44.884z" fill="#63ACC2"/><path d="M434.84 227.222c-3.531-2.275 4.642-15.326 4.642-15.326h9.419s-3.028 3.572-7.472 7.176c-4.445 3.603-6.589 8.15-6.589 8.15z" fill="#DBE5EB"/><path d="M500.268 186.506a.683.683 0 0 1-.144-.014l-22.427-4.262a.783.783 0 0 1-.619-.909.78.78 0 0 1 .907-.617l22.427 4.262a.776.776 0 0 1-.144 1.54zM489.056 198.727a.79.79 0 0 1-.272-.049l-17.729-6.537a.774.774 0 1 1 .534-1.455l17.733 6.537a.773.773 0 0 1 .459.995.772.772 0 0 1-.725.509zM485.791 202.137a.764.764 0 0 1-.264-.045c-5.392-1.963-15.818-5.747-16.698-6.008a.778.778 0 0 1-.525-.966.774.774 0 0 1 .965-.522c1.144.342 16.151 5.804 16.79 6.036a.78.78 0 0 1 .459.996.77.77 0 0 1-.727.509zM473.022 217.138a.786.786 0 0 1-.302-.06c-5.562-2.361-14.188-5.949-15.171-6.147a.772.772 0 0 1-.608-.911.773.773 0 0 1 .91-.609c1.455.29 14.045 5.631 15.477 6.236a.776.776 0 0 1-.306 1.491zM471.32 220.332a.813.813 0 0 1-.295-.057l-15.042-6.295a.777.777 0 0 1 .596-1.432l15.042 6.295a.775.775 0 0 1-.301 1.489zM503.765 182.813a.654.654 0 0 1-.145-.014l-23.577-4.451a.772.772 0 0 1-.617-.905.774.774 0 0 1 .903-.621l23.578 4.452a.78.78 0 0 1 .62.908.779.779 0 0 1-.762.631zM462.146 230.366a.763.763 0 0 1-.293-.059l-10.782-4.452a.774.774 0 1 1 .589-1.435l10.781 4.452a.776.776 0 0 1-.295 1.494zM460.061 235.008a.804.804 0 0 1-.322-.071l-10.027-4.642a.777.777 0 0 1-.375-1.031.767.767 0 0 1 1.023-.379l10.03 4.641c.388.18.556.643.379 1.032a.784.784 0 0 1-.708.45zM454.483 252.438a.758.758 0 0 1-.316-.069l-13.718-6.158a.775.775 0 1 1 .636-1.415l13.714 6.158a.776.776 0 0 1-.316 1.484zM452.401 256.606a.755.755 0 0 1-.313-.068c-5.682-2.517-12.513-5.559-12.791-5.745a.775.775 0 0 1 .827-1.313c.515.27 7.798 3.513 12.593 5.639a.777.777 0 0 1-.316 1.487z" fill="#3E6BAB"/><path d="M456.749 194.338a.927.927 0 0 1-.916-1.069l.944-6.346a.931.931 0 0 1 1.059-.784.926.926 0 0 1 .779 1.057l-.681 4.581 12.306-6.12a.935.935 0 0 1 1.252.419.938.938 0 0 1-.422 1.25l-13.906 6.914a.917.917 0 0 1-.415.098z" fill="#D54A41"/></svg>