<svg width="880" height="644" viewBox="0 0 880 644" fill="none" xmlns="http://www.w3.org/2000/svg">
<path d="M788 1C788 1 584.5 175 343.5 160.5C343.5 160.5 342.5 160.5 341.5 161.5C335.748 165.974 312.491 185.182 295.5 213.5C295.5 213.5 278 248.5 277.5 261.5M277.5 261.5L295 275M277.5 261.5L253 242L137.5 387L195.5 434M879 196C879 196 585.5 253 533.5 260C533.5 260 511 269.5 510 280C510 280 490.327 299.288 462.5 289.749M462.5 289.749C458.646 288.428 454.636 286.555 450.5 284M462.5 289.749C462.5 289.749 455 297 441.5 295M441.5 295C441.5 295 448 281.5 445.5 272.5M441.5 295C429.5 329.5 396.5 317 396.5 317M445.5 272.5C445.5 272.5 467 264.5 473 255M445.5 272.5C445.5 272.5 440.021 275.181 428.5 277.786M437.5 276C437.5 276 435.5 285 426.5 284M426.5 284L428.5 277.786M426.5 284C426.5 284 421.5 299 396.5 317M428.5 277.786C416.161 280.575 396.391 283.276 369.5 282.5M396.5 317C396.5 317 363 325.5 348.5 298.5M348.5 298.5C348.5 298.5 376 281 373.5 275M348.5 298.5L346 315.5M348.5 298.5L336 307.5M346 315.5L336 307.5M346 315.5L362.5 329.5L280.5 434M336 307.5C336 307.5 330.5 310 328.5 317C328.5 317 308.5 342 282 343C282 343 259.5 345 263.5 321C263.5 321 265 309 295 275M504 247.5C504 247.5 512.5 250.5 515 259M518 232.5C519.5 229 523.5 229 523.5 229M295 275C295 275 298.5 269.5 333.5 240.5M333.5 240.5C333.5 240.5 321 228 319 204.5M333.5 240.5C333.5 240.5 337.406 236.239 341.704 231M341.704 231C346.241 225.471 351.216 218.851 352.5 215M341.704 231C341.704 231 332 207 335.5 194M277.5 306.5C277.5 306.5 280.5 301.5 282.5 306L296 322.5C296 322.5 299.5 325.5 289 334.5M297.5 288C297.5 288 302 296.5 313 303M195.5 434H280.5M195.5 434H1V538H14M280.5 434H481V538H468.5M14 538V644M14 538H468.5M468.5 538V644" stroke="black"/>
</svg>
