<svg width="118" height="85" viewBox="0 0 118 85" fill="none" xmlns="http://www.w3.org/2000/svg">
<g id="languageArrow">
<circle id="circle" cx="61.0505" cy="41.1108" r="13.7561" transform="rotate(-30 61.0505 41.1108)" stroke="#F37168" stroke-width="2"/>
<path id="curve" d="M105.539 2.84016C105.272 2.35639 104.664 2.1802 104.18 2.44662L96.2968 6.78828C95.813 7.0547 95.6368 7.66286 95.9033 8.14663C96.1697 8.6304 96.7778 8.8066 97.2616 8.54017L104.269 4.68092L108.128 11.6885C108.395 12.1723 109.003 12.3485 109.487 12.082C109.971 11.8156 110.147 11.2075 109.88 10.7237L105.539 2.84016ZM1.9183 62.6421C1.67422 63.6118 1.675 63.612 1.67609 63.6123C1.67685 63.6125 1.67824 63.6129 1.67978 63.6132C1.68284 63.614 1.68712 63.6151 1.6926 63.6164C1.70355 63.6191 1.71933 63.623 1.73985 63.628C1.78088 63.638 1.84091 63.6524 1.91941 63.6708C2.07641 63.7076 2.30732 63.7604 2.60795 63.8255C3.20918 63.9556 4.08949 64.1349 5.21548 64.3342C7.46714 64.7326 10.7031 65.2109 14.6561 65.5344C22.5575 66.1809 33.3474 66.2108 44.8754 63.7314C56.4073 61.2512 68.6961 56.2556 79.5603 46.8398C90.4301 37.4191 99.8245 23.6157 105.623 3.60084L103.702 3.04429C98.0004 22.7246 88.8016 36.1839 78.2504 45.3284C67.6937 54.4778 55.734 59.3503 44.4549 61.7761C33.1719 64.2028 22.5884 64.1768 14.8192 63.541C10.9367 63.2233 7.76309 62.7539 5.56393 62.3647C4.46451 62.1702 3.60912 61.9959 3.03101 61.8707C2.74196 61.8082 2.52228 61.7579 2.37611 61.7237C2.30303 61.7065 2.24833 61.6934 2.21253 61.6847C2.19464 61.6803 2.18147 61.6771 2.17309 61.675C2.1689 61.674 2.1659 61.6732 2.16412 61.6728C2.16322 61.6725 2.16279 61.6724 2.16234 61.6723C2.16221 61.6723 2.16239 61.6723 1.9183 62.6421Z" fill="#F37168"/>
</g>
</svg>
