<svg width="60" height="70" fill="none" xmlns="http://www.w3.org/2000/svg"><path fill-rule="evenodd" clip-rule="evenodd" d="M16.93 23.383c-2.166 0-3.237 2.339-3.237 4.505 0 2.167 1.071 4.505 3.237 4.505 2.167 0 3.238-2.338 3.238-4.505 0-2.166-1.07-4.505-3.238-4.505zm0 1.549c-1.354-.097-1.86 1.599-1.83 2.956.03 1.311.522 2.912 1.83 2.816 1.252-.092 1.523-1.561 1.549-2.816.026-1.303-.249-2.863-1.549-2.956z" fill="#214C9E"/><path d="M5.105 46.33c-.33-.29 0-1.126 0-1.126s3.25-2.752 4.927-4.787c1.677-2.034 3.66-5.63 3.66-5.63s1.042-.29.986.422C14.28 40.242 6.091 46.33 6.091 46.33s-.696.254-.986 0zM7.908 65.228c-.652-.077-.753-1.317-.753-1.317s2.658-5.793 3.619-9.5c.96-3.706 1.792-9.489 1.792-9.489s1.01-1.3 1.408-.422c2.816 6.199-4.701 19.947-4.701 19.947s-.794.847-1.365.78z" fill="#214C9E"/><path d="M16.72 68.856c-.646.119-1.107-1.037-1.107-1.037s.843-6.318.675-10.144c-.169-3.825-1.07-9.597-1.07-9.597s.585-1.539 1.223-.817c4.51 5.1 1.354 20.449 1.354 20.449s-.51 1.043-1.076 1.146zM24.25 40.136c-2.964-.395-6.193-4.505-6.193-4.505s-.507.17-.704.422c-.339.434 0 1.408 0 1.408s4.113 4.172 7.46 4.224c1.694.026 4.224-.986 4.224-.986.563 0 1.22.371 1.83 0 .548-.333.61-.938.845-1.408 0 0-1.632-.064-2.675 0-1.894.118-2.905 1.096-4.786.845z" fill="#214C9E"/><path d="m29.741 38.447 3.66-10.277s-.374-.124-.563-.282c-.633-.528 0-2.111 0-2.111s.032-.372.141-.563c.098-.172.422-.282.422-.282l4.364 1.549s.222.324.282.563c.067.267.042.432 0 .704-.17 1.115-2.112 1.97-2.112 1.97l-3.8 9.01-2.394-.281zM25.236 52.947l3.66-11.403h1.83l-5.208 12.248s-.23-.231-.282-.423c-.043-.159 0-.422 0-.422z" fill="#C6C4C4" stroke="#000"/><path d="M34.105 18.597c1.066-2.325 3.285-3.833 5.632-2.816 2.41 1.046 2.809 4.24 1.689 6.617-1.07 2.269-3.161 3.605-5.49 2.675-2.456-.98-2.932-4.073-1.83-6.476z" fill="#E86E16"/><path d="m41.708 22.257 17.315 5.209M41.989 20.568l11.403-1.126M41.848 18.456l15.767-7.883M41.144 16.767l6.757-7.743M39.173 15.5 43.678 1M37.061 15.5l-.563-9.854M35.373 16.626 27.77 2.83M34.246 18.175l-8.728-7.32M33.683 19.864l-16.33-5.913M33.542 21.413 22 22.117M33.965 23.102l-13.233 6.476M41.003 23.947l8.87 7.883" stroke="#E86E16"/></svg>